<svg width="525px" height="432px" viewBox="0 0 525 432" version="1.1" xmlns="http://www.w3.org/2000/svg" xmlns:xlink="http://www.w3.org/1999/xlink">
    <g id="floorplan" stroke="none" stroke-width="1" fill="none" fill-rule="evenodd">
        <g id="windows" transform="translate(11.000000, 10.000000)" fill="#FFFFFF" stroke="#FFFFFF">
            <polygon id="Path" points="471.168709 372.3 482.955675 372.3 482.955675 377.587362 471.168709 377.587362"></polygon>
            <polygon id="Path" fill-rule="nonzero" points="112.591016 1.42108547e-14 112.591016 4.31967492 17.0955992 4.31967492 17.0955992 1.42108547e-14"></polygon>
            <polygon id="Path" fill-rule="nonzero" points="5.30863342 19.7029053 5.30863342 49.122585 2.84217094e-14 49.122585 2.84217094e-14 19.7029053"></polygon>
            <polygon id="Path" fill-rule="nonzero" points="5.30863342 84.6277191 5.30863342 114.037423 2.84217094e-14 114.037423 2.84217094e-14 84.6277191"></polygon>
            <polygon id="Path" fill-rule="nonzero" points="249.085622 372.3 249.085622 376.609699 237.298656 376.609699 237.298656 372.3"></polygon>
            <polygon id="Path" fill-rule="nonzero" points="436.987508 372.3 448.774474 372.3 448.774474 377.587362 436.987508 377.587362"></polygon>
            <polygon id="Path" fill-rule="nonzero" points="405.175697 372.3 416.972661 372.3 416.972661 377.587362 405.175697 377.587362"></polygon>
            <polygon id="Path" fill-rule="nonzero" points="306.910993 372.3 318.697959 372.3 318.697959 377.587362 306.910993 377.587362"></polygon>
            <polygon id="Path" fill-rule="nonzero" points="282.697226 372.3 294.484192 372.3 294.484192 377.587362 282.697226 377.587362"></polygon>
            <polygon id="Path" fill-rule="nonzero" points="258.853364 372.3 270.650328 372.3 270.650328 377.587362 258.853364 377.587362"></polygon>
            <polygon id="Path" fill-rule="nonzero" points="198.37919 376.609699 210.166155 376.609699 210.166155 372.3 198.37919 372.3"></polygon>
            <polygon id="Path" fill-rule="nonzero" points="85.5279829 116.671128 95.0155406 126.138498 94.3257181 126.836829 93.7018787 127.457346 93.7188909 127.471639 92.236256 128.911869 91.2665057 129.879556 83.3385465 121.968466 84.3082969 119.614093 85.1280858 117.648791"></polygon>
            <polygon id="Path" fill-rule="nonzero" points="2.84217094e-14 397.549759 2.84217094e-14 354.412867 5.30863342 354.412867 5.30863342 397.549759"></polygon>
            <polygon id="Path" fill-rule="nonzero" points="2.84217094e-14 292.241472 2.84217094e-14 280.479585 5.30863342 280.479585 5.30863342 292.241472"></polygon>
            <polygon id="Path" fill-rule="nonzero" points="5.30863342 178.293834 5.30863342 221.430727 2.84217094e-14 221.430727 2.84217094e-14 178.293834"></polygon>
            <polygon id="Path" fill-rule="nonzero" points="2.84217094e-14 333.093825 2.84217094e-14 321.331938 5.30863342 321.331938 5.30863342 333.093825"></polygon>
            <polygon id="Path" fill-rule="nonzero" points="184.522499 405.712638 184.522499 411 153.080593 411 153.080593 405.712638"></polygon>
            <polygon id="Path" fill-rule="nonzero" points="107.202403 405.712638 107.202403 411 63.9735316 411 63.9735316 405.712638"></polygon>
            <polygon id="Path" fill-rule="nonzero" points="499.691367 300.531656 499.691367 269.15665 505 269.15665 505 300.531656"></polygon>
            <polygon id="Path" fill-rule="nonzero" points="371.354404 224.513358 414.583276 224.513358 414.583276 229.810696 371.354404 229.810696"></polygon>
            <polygon id="Path" fill-rule="nonzero" points="309.02045 224.513358 352.249322 224.513358 352.249322 229.810696 309.02045 229.810696"></polygon>
            <polygon id="Path" fill-rule="nonzero" points="242.837487 224.513358 286.066359 224.513358 286.066359 229.810696 242.837487 229.810696"></polygon>
            <polygon id="Path" fill-rule="nonzero" points="31.6418546 128.223515 30.2522123 126.836829 29.5623899 126.138498 39.0499475 116.671128 39.4498446 117.648791 41.2493813 121.968466 33.3114248 129.879556 32.3416744 128.911869"></polygon>
            <polygon id="Path" fill-rule="nonzero" points="479.896462 165.693951 489.38402 175.161322 485.634985 178.90238 477.707026 170.981313 447.404826 170.981313 439.46687 178.90238 435.717835 175.161322 445.205393 165.693951"></polygon>
            <polygon id="Path" fill-rule="nonzero" points="387.540237 375.223125 390.59945 378.275829 391.299269 378.964183 381.801714 388.431554 381.801714 388.430556 347.110645 388.431554 337.623087 378.964183 338.322907 378.275829 340.402372 376.200788 341.372122 375.223125 349.310079 383.144192 379.612278 383.144192"></polygon>
        </g>
        <g id="walls" transform="translate(12.000000, 10.000000)" fill="#FFFFFF" fill-opacity="0.6" stroke="#FFFFFF">
            <polygon id="Path" points="453.29581 332.96 434.251868 332.96 434.251868 330.79 453.29581 330.79 453.29581 311.14 498.681374 311.139 498.681374 301.25 503 301.25 503 376.59 481.946697 376.59 481.946697 372.27 498.681374 372.27 498.681374 313.299 455.455124 313.3 455.454124 372.27 470.160446 372.27 470.160446 376.59 447.767569 376.59 447.767569 372.27 453.296159 372.271034"></polygon>
            <polygon id="Path" points="308.022021 226.03 308.022021 230.36 302.193875 230.36 302.193875 299.35 315.069779 299.35 315.069779 308.98 343.460748 308.98 343.460748 311.14 312.900469 311.14 312.900469 301.51 289.327967 301.51 289.327967 311.14 287.168654 311.14 287.168654 299.35 300.034562 299.35 300.034562 230.36 285.069322 230.36 285.069322 226.03"></polygon>
            <polygon id="Path" points="229.107123 230.36 220.379899 230.36 220.379899 226.03 241.843072 226.03 241.843072 230.36 231.266436 230.36 231.266436 299.35 269.484279 299.35 269.484279 301.51 222.159333 301.51 222.159333 299.35 229.107123 299.35"></polygon>
            <polygon id="Path" points="104.726687 264.64 104.726687 318.8 193.147561 318.799 193.148561 306.71 184.501312 306.71 184.501312 302.39 190.989248 302.39 190.989248 289.42 184.501312 289.42 184.501312 285.09 193.148561 285.09 193.148561 285.09 193.148561 264.64 195.307874 264.64 195.307874 299.349 198.586831 299.35 198.586831 301.51 195.307874 301.51 195.307874 318.8 195.306875 318.801 195.307874 320.97 102.567374 320.97 102.567374 264.64"></polygon>
            <polygon id="Path" points="152.091621 410 106.471132 410 106.216214 405.68 152.091621 405.68"></polygon>
            <polygon id="Path" points="122.610998 1.57772181e-30 122.609999 11.009 118.282375 11.01 118.282375 4.33 111.6045 4.33 111.6045 -7.10542736e-15"></polygon>
            <polygon id="Path" points="4.3286231 19.75 -2.84217094e-14 19.75 -2.84217094e-14 1.57772181e-30 16.114874 -7.10542736e-15 16.114874 4.33 4.3286231 4.33"></polygon>
            <polygon id="Path" points="-2.84217094e-14 114.31 4.3286231 114.31 4.3286231 129.73 26.6815128 129.73 29.2706892 127.14 32.7995667 129.73 28.4709436 134.05 4.3286231 134.05 4.3286231 178.72 -2.84217094e-14 178.72"></polygon>
            <polygon id="Path" points="-2.84217094e-14 84.83 -2.84217094e-14 49.24 4.3286231 49.24 4.3286231 84.83"></polygon>
            <polygon id="Path" points="122.610998 173.899 118.282375 173.9 118.282375 134.05 94.1400549 134.05 90.1918236 130.303018 93.3403092 127.14 95.9294857 129.73 118.282375 129.73 118.282375 123.04 122.610998 123.04"></polygon>
            <polygon id="Path" points="394.580804 311.14 394.580804 312.22 392.383296 312.22 392.383296 311.14 380.988811 311.14 380.988811 308.98 422.245687 308.98 422.245687 230.36 413.578444 230.36 413.578444 226.03 420.086374 226.03 420.086374 178.86 432.812326 178.86 435.401503 176.27 438.93038 178.86 434.611754 183.19 424.405 183.19 424.405 311.14"></polygon>
            <polygon id="Path" points="180.692523 347.28 178.663169 346.23 177.533528 345.8 175.563155 345.069 174.234577 344.74 172.345178 344.29 170.845655 344.11 169.066221 343.89 165.757274 343.89 163.97784 344.11 162.46832 344.29 160.588918 344.74 159.249344 345.07 157.289967 345.8 156.15033 346.23 153.211265 347.75 151.131926 349.16 150.462139 349.61 148.35281 351.44 147.972931 351.78 145.833612 354.14 145.74364 354.23 143.834248 356.93 143.834248 361.85 141.664938 361.85 141.664938 356.33 143.594324 353.48 145.74364 350.97 145.833612 350.86 147.972931 348.89 148.35281 348.529 151.131926 346.49 153.211265 345.31 154.120975 344.79 157.289967 343.45 159.249344 342.87 160.588918 342.47 162.46832 342.14 163.97784 341.88 165.757274 341.78 167.406749 341.68 169.066221 341.78 170.845655 341.88 174.234577 342.47 175.564155 342.87 177.533528 343.45 180.692523 344.79 181.612231 345.31 183.681572 346.49 186.460688 348.53 188.979887 350.86 189.069858 350.97 190.989248 353.2 191.219175 353.48 193.148561 356.33 193.147561 372.27 196.387531 372.27 196.387531 376.59 195.307874 376.59 195.307874 410 183.53162 410 183.53162 405.68 190.989248 405.68 190.989248 356.93 189.069858 354.23 188.979887 354.14 186.850564 351.78 184.351359 349.61 183.680573 349.158 181.612231 347.75"></polygon>
            <polygon id="Path" points="249.090766 376.59 249.090766 372.27 252.089812 372.27 252.089812 332.96 252.201777 332.96 252.089812 330.79 254.249126 330.79 254.249126 372.27 257.857978 372.27 257.857978 376.59"></polygon>
            <polygon id="Path" points="273.902874 332.96 271.9335 332.96 271.9335 330.79 294.356368 330.79 294.356368 332.96 276.062187 332.96 276.062187 372.27 281.700394 372.27 281.700394 376.59 269.654225 376.59 269.654225 372.27 273.902874 372.27"></polygon>
            <polygon id="Path" points="293.486644 376.59 293.486644 372.27 305.912692 372.27 305.912692 376.59"></polygon>
            <polygon id="Path" points="394.344562 329.91 394.343563 330.789 416.567493 330.79 416.567493 332.96 394.343563 332.96 394.344562 372.27 404.171437 372.27 404.171437 376.59 392.185249 376.59 389.596073 379.18 386.077192 376.59 390.395818 372.27 392.185249 372.27 392.18425 332.959 333.243998 332.96 333.243998 372.27 336.522955 372.27 340.841581 376.59 337.322701 379.18 334.733524 376.59 317.698943 376.59 317.698943 372.27 331.074688 372.27 331.074688 332.96 312.040743 332.96 312.040743 330.79 392.18425 330.789 392.185249 329.91"></polygon>
            <polygon id="Path" points="415.967684 376.59 415.967684 372.27 435.981318 372.27 435.981318 376.59"></polygon>
            <polygon id="Path" points="122.610998 221.07 122.610998 226.03 127.659393 226.03 127.658393 230.359 122.610998 230.36 122.607999 230.359 104.726687 230.36 104.726687 230.36 104.726687 241.05 102.567374 241.05 102.567374 228.2 118.282375 228.2 118.282375 221.07"></polygon>
            <polygon id="Path" points="-2.84217094e-14 398.5 4.3286231 398.5 4.3286231 405.68 23.9723746 405.68 23.9723746 410 -2.84217094e-14 410"></polygon>
            <polygon id="Path" points="4.3286231 221.96 4.32762342 271.63 31.8298752 271.63 31.8298752 273.8 4.32762342 273.8 4.3286231 281.15 -2.84217094e-14 281.15 -2.84217094e-14 221.96"></polygon>
            <polygon id="Path" points="4.3286231 355.26 -2.84217094e-14 355.26 -2.84217094e-14 333.89 4.3286231 333.89 4.3286231 344.55 43.8160625 344.55 43.8160625 359.64 41.6567493 359.64 41.6567493 346.71 4.3286231 346.71"></polygon>
            <polygon id="Path" points="43.8160625 377.32 43.8160625 405.68 62.9899634 405.68 62.9899634 410 41.6567493 410 41.6567493 377.32"></polygon>
            <polygon id="Path" points="490.274048 178.86 503 178.86 503 269.8 498.681374 269.8 498.681374 183.19 488.484617 183.19 484.155994 178.86 487.684872 176.27"></polygon>
            <polygon id="Path" points="351.248271 230.36 351.248271 226.03 370.352194 226.03 370.352194 230.36 363.304436 230.36 363.304436 311.14 361.145123 311.14 361.145123 230.36"></polygon>
            <polygon id="Path" points="202.695524 226.03 202.695524 230.36 195.307874 230.359 195.307874 241.05 193.148561 241.05 193.147561 230.359 174.814393 230.36 174.814393 226.03"></polygon>
            <polygon id="Path" points="39.287503 117.93 44.6058113 117.93 44.6058113 122.26 40.2671914 122.26"></polygon>
            <polygon id="Path" points="78.0051872 117.93 83.3234955 117.93 82.353804 122.26 78.0051872 122.26"></polygon>
        </g>
        <g id="doors" transform="translate(13.300000, 129.300000)" fill-rule="nonzero">
            <rect id="binary_sensor.outside_door" class="door" stroke="#FFFFFF" fill="#FFFFFF" x="202.4" y="108.1" width="15.7" height="2"></rect>
            <rect id="binary_sensor.verandah_door" class="door" stroke="#FFFFFF" fill="#FFFFFF" x="44.3" y="2.84217094e-14" width="31.4" height="2"></rect>
            <rect id="binary_sensor.front_door" class="door" stroke="#FFFFFF" fill="#FFFFFF" x="208.9" y="254" width="25.1" height="2"></rect>
            <rect id="binary_sensor.kitchen_door" class="door" stroke="#FFFFFF" fill="#FFFFFF" x="23.7" y="287.4" width="15.6" height="2"></rect>
            <rect id="binary_sensor.diningroom_door" class="door" stroke="#FFFFFF" fill="#FFFFFF" x="1.42108547e-14" y="173.9" width="2" height="27.1"></rect>
            <rect id="cover.garage_door_right" class="door" stroke="#464646" fill="#464646" x="252.7" y="288.7" width="37" height="2"></rect>
            <rect id="cover.garage_door_left" class="door" stroke="#464646" fill="#464646" x="295.7" y="288.7" width="37" height="2"></rect>
        </g>
        <g id="light" transform="translate(24.000000, 150.500000)" fill="#464646" fill-rule="nonzero" stroke="#464646" stroke-opacity="0.5" stroke-width="5">
            <circle id="light.lounge_lamp_1" class="light" cx="166" cy="170" r="5"></circle>
            <circle id="light.lounge_lamp_2" class="light" cx="166" cy="99" r="5"></circle>
            <circle id="light.outside" class="light" cx="245" cy="65" r="5"></circle>
            <circle id="light.lounge_main" class="light" cx="138" cy="135" r="5"></circle>
            <circle id="light.night" class="light" cx="98" cy="195" r="5"></circle>
            <circle id="light.kitchen" class="light" cx="76" cy="238" r="5"></circle>
            <circle id="light.entrance" class="light" cx="213" cy="202" r="5"></circle>
            <circle id="light.breezeway" class="light" cx="201" cy="128" r="5"></circle>
            <circle id="light.hallway" class="light" cx="312" cy="181" r="5"></circle>
            <circle id="light.toilet" class="light" cx="252" cy="211" r="5"></circle>
            <circle id="light.bathroom" class="light" cx="291" cy="211" r="5"></circle>
            <circle id="light.study" class="light" cx="352" cy="211" r="5"></circle>
            <circle id="light.ensuite" class="light" cx="413" cy="211" r="5"></circle>
            <circle id="light.dining_room" class="light" cx="42" cy="170" r="5"></circle>
            <circle id="light.bar" class="light" cx="48" cy="61" r="5"></circle>
            <circle id="light.driveway" class="light" cx="335" cy="268" r="5"></circle>
            <circle id="light.bar_lamp" class="light" cx="5" cy="5" r="5"></circle>
            <circle id="light.bedroom" class="light" cx="451" cy="98" r="5"></circle>
            <circle id="light.verandah" class="light" cx="48" cy="-77" r="5"></circle>
        </g>
    </g>
</svg>